<svg width="31" height="25" viewBox="0 0 31 25" fill="none" xmlns="http://www.w3.org/2000/svg">
<path d="M0.25 10.67C0.25 10.3031 0.493048 10.06 0.86 10.06H26.48C28.1885 10.06 29.53 8.71849 29.53 7.01C29.53 5.30152 28.1885 3.96 26.48 3.96C24.7715 3.96 23.43 5.30152 23.43 7.01C23.43 7.37696 23.187 7.62 22.82 7.62C22.4531 7.62 22.21 7.37696 22.21 7.01C22.21 4.63198 24.102 2.74 26.48 2.74C28.858 2.74 30.75 4.63198 30.75 7.01C30.75 9.38803 28.858 11.28 26.48 11.28H0.86C0.493048 11.28 0.25 11.037 0.25 10.67ZM0.86 7.62H16.415C18.245 7.62 19.77 6.095 19.77 4.265C19.77 2.435 18.245 0.910004 16.415 0.910004C14.585 0.910004 13.06 2.435 13.06 4.265C13.06 4.63196 13.3031 4.875 13.67 4.875C14.037 4.875 14.28 4.63196 14.28 4.265C14.28 3.10698 15.257 2.13 16.415 2.13C17.573 2.13 18.55 3.10698 18.55 4.265C18.55 5.42303 17.573 6.4 16.415 6.4H0.86C0.493048 6.4 0.25 6.64305 0.25 7.01C0.25 7.37696 0.493048 7.62 0.86 7.62ZM26.48 13.72H0.86C0.493048 13.72 0.25 13.9631 0.25 14.33C0.25 14.697 0.493048 14.94 0.86 14.94H26.48C28.1885 14.94 29.53 16.2815 29.53 17.99C29.53 19.6985 28.1885 21.04 26.48 21.04C24.7715 21.04 23.43 19.6985 23.43 17.99C23.43 17.6231 23.187 17.38 22.82 17.38C22.4531 17.38 22.21 17.6231 22.21 17.99C22.21 20.368 24.102 22.26 26.48 22.26C28.858 22.26 30.75 20.368 30.75 17.99C30.75 15.612 28.858 13.72 26.48 13.72ZM16.415 17.38H0.86C0.493048 17.38 0.25 17.6231 0.25 17.99C0.25 18.357 0.493048 18.6 0.86 18.6H16.415C17.573 18.6 18.55 19.577 18.55 20.735C18.55 21.893 17.573 22.87 16.415 22.87C15.257 22.87 14.28 21.893 14.28 20.735C14.28 20.3681 14.037 20.125 13.67 20.125C13.3031 20.125 13.06 20.3681 13.06 20.735C13.06 22.565 14.585 24.09 16.415 24.09C18.245 24.09 19.77 22.565 19.77 20.735C19.77 18.905 18.245 17.38 16.415 17.38Z" fill="black"/>
</svg>
