<svg width="41" height="17" viewBox="0 0 41 17" fill="none" xmlns="http://www.w3.org/2000/svg">
<path d="M40.0448 5.7299L38.8376 5.7299L38.8376 4.91907C38.8376 4.07426 38.1501 3.38684 37.3053 3.38681L35.2917 3.38681L35.2917 2.38795C35.2917 1.11279 34.2544 0.0754474 32.9792 0.0754175L30.3768 0.0754191C29.1016 0.0754189 28.0643 1.11276 28.0642 2.38795L28.0642 6.82722L13.4349 6.82925L13.4349 2.38997C13.4349 1.11482 12.3976 0.0774757 11.1224 0.0774475L8.51994 0.0774473C7.24478 0.0774475 6.20744 1.11479 6.20741 2.38997L6.20741 3.38884L4.19384 3.38884C3.34903 3.38884 2.66162 4.07626 2.66159 4.9211L2.66159 5.73193L1.45439 5.73193C0.915329 5.73193 0.475933 6.17132 0.474799 6.71152L0.474801 10.2902C0.4748 10.8292 0.914196 11.2686 1.45439 11.2697L2.66159 11.2697L2.66159 12.0806C2.66159 12.9254 3.34901 13.6128 4.19384 13.6128L6.20741 13.6128L6.20741 14.6117C6.20741 15.8869 7.24475 16.9242 8.51994 16.9242L11.1224 16.9242C12.3975 16.9242 13.4349 15.8869 13.4349 14.6117L13.4349 10.1724L28.0642 10.1704L28.0642 14.6097C28.0642 15.8848 29.1016 16.9222 30.3768 16.9222L32.9792 16.9222C34.2544 16.9222 35.2917 15.8848 35.2917 14.6097V13.6108L37.3053 13.6108C38.1501 13.6108 38.8375 12.9234 38.8376 12.0785L38.8376 11.2677L40.0448 11.2677C40.5838 11.2677 41.0232 10.8283 41.0243 10.2881L41.0243 6.70948C41.0243 6.17043 40.5849 5.73103 40.0448 5.7299ZM1.45433 10.4137C1.38638 10.4137 1.32976 10.3571 1.32863 10.288L1.32863 6.7094C1.32863 6.64145 1.38525 6.58483 1.45433 6.5837L2.66153 6.5837L2.66153 10.4138L1.45433 10.4137ZM4.19378 12.7568C3.82007 12.7568 3.51656 12.4533 3.51657 12.0796V4.92223C3.51657 4.54851 3.82008 4.24501 4.19378 4.24502L6.20735 4.24502L6.20735 12.7592L4.19378 12.7568ZM11.1222 16.0681L8.51979 16.0681C7.71574 16.0681 7.06117 15.4136 7.06118 14.6095L7.06117 2.39024C7.06117 1.58619 7.71574 0.931623 8.51979 0.931624L11.1222 0.931623C11.9263 0.931624 12.5808 1.58619 12.5808 2.39024L12.5808 7.25308C12.5808 7.25534 12.5797 7.25648 12.5797 7.25648L12.5797 9.74341C12.5797 9.74568 12.5808 9.74681 12.5808 9.74681L12.5808 14.6097C12.5808 15.4137 11.9263 16.0681 11.1222 16.0681ZM28.0628 9.31518L13.4346 9.31605L13.4346 7.68302L28.0619 7.68302L28.0628 9.31518ZM34.4375 14.6095C34.4375 15.4135 33.7829 16.0681 32.9789 16.0681L30.3764 16.0681C29.5724 16.0681 28.9178 15.4135 28.9178 14.6095L28.9178 2.39021C28.9178 1.58616 29.5724 0.931595 30.3764 0.931594L32.9789 0.931595C33.7829 0.931594 34.4375 1.58616 34.4375 2.39021L34.4375 14.6095ZM37.9822 12.0794C37.9822 12.4531 37.6787 12.7566 37.305 12.7566H35.2915L35.2915 4.24244L37.305 4.24244C37.6788 4.24244 37.9823 4.54594 37.9822 4.91965L37.9822 12.0794ZM40.1691 10.289C40.1691 10.3569 40.1124 10.4135 40.0434 10.4147L38.8362 10.4147L38.8362 6.58462L40.0434 6.58462C40.1113 6.58462 40.1679 6.64124 40.1691 6.71032L40.1691 10.289Z" fill="black"/>
</svg>
