<svg width="33" height="33" viewBox="0 0 33 33" fill="none" xmlns="http://www.w3.org/2000/svg">
<path d="M31.4506 24.8143L24.1081 11.1748C23.6866 10.3962 22.9067 9.92827 22.0186 9.92827C21.1291 9.92827 20.3505 10.3962 19.929 11.1748L18.5536 13.7233L18.4157 13.4667C18.3976 13.3662 18.3512 13.2837 18.2867 13.2283L15.1247 7.35262C14.7032 6.57402 13.9233 6.10611 13.0351 6.10611C12.1457 6.10611 11.3671 6.57405 10.9456 7.35262L7.371 13.9991V14.0082V14.0172L1.54947 24.8145C1.311 25.254 1.32002 25.7774 1.57654 26.208C1.83307 26.6385 2.29198 26.895 2.79599 26.895H30.2131C30.7171 26.895 31.167 26.6385 31.4325 26.208C31.689 25.7774 31.6981 25.2541 31.4596 24.8145L31.4506 24.8143ZM20.7346 11.6054C20.9911 11.1285 21.468 10.8359 22.0184 10.8359C22.5598 10.8359 23.0446 11.1195 23.3023 11.5964L26.0248 16.6471C25.7864 16.785 25.5298 16.8855 25.1083 16.8855C24.5308 16.8855 24.2653 16.7115 23.9263 16.4821C23.5499 16.2346 23.0923 15.9226 22.2402 15.9226C21.3881 15.9226 20.9382 16.2255 20.5631 16.473C20.4342 16.5555 20.3066 16.638 20.1777 16.7025L19.0871 14.6761L20.7461 11.5965L20.7346 11.6054ZM11.751 7.78337C12.0075 7.30642 12.4845 7.02282 13.0349 7.02282C13.5853 7.02282 14.061 7.30641 14.3188 7.78337L17.1792 13.0904C16.5102 13.1459 16.1157 13.3934 15.7677 13.6215C15.4287 13.851 15.1631 14.025 14.5766 14.025C13.99 14.025 13.7335 13.851 13.3945 13.6215C13.0181 13.374 12.5605 13.0621 11.7084 13.0621C10.8563 13.0621 10.3974 13.374 10.0314 13.6125C9.69236 13.842 9.4268 14.016 8.8493 14.016C8.6843 14.016 8.54637 13.998 8.42779 13.9696L11.7638 7.7732L11.751 7.78337ZM2.78684 25.9875C2.53032 25.9875 2.4014 25.8135 2.35629 25.749C2.30989 25.6755 2.22739 25.4835 2.34727 25.254L7.96618 14.8125C8.19563 14.886 8.47019 14.9504 8.83757 14.9504C9.69868 14.9504 10.1576 14.6385 10.5237 14.391C10.8537 14.1705 11.1192 13.9875 11.6967 13.9875C12.2742 13.9875 12.5398 14.1615 12.8788 14.391C13.2552 14.6385 13.7128 14.9504 14.5649 14.9504C15.417 14.9504 15.8939 14.6385 16.2613 14.391C16.6467 14.1344 16.9948 13.9875 17.6548 14.0146L24.1079 25.986L2.78684 25.9875ZM30.6359 25.749C30.5895 25.8225 30.4619 25.9875 30.2053 25.9875H25.1639L20.6083 17.526C20.7823 17.4344 20.9292 17.3429 21.0672 17.2514C21.3972 17.031 21.6627 16.8569 22.2312 16.8569C22.7997 16.8569 23.0742 17.031 23.4132 17.2604C23.7896 17.5079 24.2472 17.8199 25.0993 17.8199C25.7232 17.8199 26.1254 17.6639 26.4554 17.4718L30.6448 25.2539C30.7634 25.4833 30.681 25.6755 30.6359 25.749Z" fill="black"/>
</svg>
