<svg xmlns="http://www.w3.org/2000/svg" width="28" height="21" viewBox="0 0 28 21" fill="none">
  <path d="M14.8365 17.5638L19.8789 20.215C20.3472 20.4599 20.3451 20.4621 20.2548 19.94L19.2923 14.3261C19.1935 13.7546 19.417 13.0671 19.8316 12.6611L23.9115 8.68434C24.2918 8.31481 24.2918 8.31911 23.7676 8.24177L18.1301 7.4232C17.5586 7.33941 16.972 6.91617 16.7142 6.39409L14.1941 1.28509C13.96 0.810285 13.9621 0.810285 13.7279 1.28509L11.2057 6.39409C10.95 6.91401 10.3657 7.33943 9.79202 7.4232L4.15452 8.24177C3.63031 8.31911 3.63031 8.31481 4.01058 8.68434L8.08833 12.6611C8.50298 13.065 8.72859 13.7525 8.62974 14.3261L7.66724 19.94C7.57701 20.4621 7.57486 20.4599 8.04322 20.215L13.0856 17.5638C13.5991 17.2931 14.3208 17.2931 14.8365 17.5638Z" stroke="#030303" stroke-width="1.2"/>
</svg>