<svg xmlns="http://www.w3.org/2000/svg" width="31" height="30" viewBox="0 0 31 30" fill="none">
  <path d="M27.3192 4.1016C27.1832 4.01878 27.0192 3.99379 26.8645 4.03129C26.7098 4.07035 26.577 4.16879 26.4957 4.30629L21.8877 11.9859C21.708 12.289 21.4158 12.5062 21.0737 12.5921C20.7283 12.6765 20.3643 12.6187 20.0612 12.4312L19.8534 12.3031V12.3046C19.7096 12.214 19.5346 12.1906 19.3737 12.2406C19.2096 12.289 19.0737 12.4046 19.0002 12.5593C18.483 13.6374 17.608 15.3437 16.6096 17.2265L15.4627 15.189C16.3518 13.8968 17.108 12.8281 17.6393 12.0749L17.7987 11.8343V11.8374C17.8955 11.7015 17.9299 11.5327 17.8971 11.3718C17.8643 11.2093 17.7658 11.0671 17.6252 10.9812L17.4127 10.8499H17.4112C17.1049 10.6702 16.883 10.3749 16.7955 10.0296C16.708 9.68583 16.7611 9.32023 16.944 9.0155L21.552 1.3359H21.5535C21.7066 1.05309 21.6113 0.698384 21.3348 0.532784C21.0582 0.365596 20.7004 0.448408 20.5223 0.71716L15.9143 8.39676C15.2815 9.46864 15.5143 10.8405 16.4658 11.6421C16.0221 12.2702 15.4534 13.0827 14.8002 14.0249L7.9206 1.82168V1.82012C7.64716 1.32948 7.12996 1.02324 6.56748 1.02012H6.55654C6.00186 1.01699 5.48778 1.31074 5.2081 1.78888L4.82686 2.44512H4.82842C4.1409 3.61544 4.02686 5.03576 4.51748 6.30292L7.52528 14.1997C8.03308 15.5325 9.14716 16.5435 10.5237 16.92L11.2175 17.1044C11.4206 17.5294 11.6409 17.9825 11.8737 18.4513C10.2175 21.0107 8.65028 23.6309 7.33012 26.0593C6.72544 27.1749 7.10825 28.5687 8.19732 29.2187C8.56607 29.4499 8.99108 29.5702 9.42544 29.5702C10.2223 29.5718 10.9676 29.1687 11.3989 28.4968C12.3895 26.9999 13.4348 25.3109 14.5082 23.4876C15.4301 25.1517 16.4286 26.8469 17.4801 28.4564H17.4786C17.9817 29.2423 18.8942 29.6657 19.8192 29.5407C20.7426 29.4142 21.5098 28.7626 21.7833 27.8704C21.9723 27.2767 21.9052 26.6313 21.5989 26.0892L17.3069 18.4704C18.2991 16.6126 19.1991 14.8751 19.8038 13.6484C20.3007 13.8468 20.8475 13.8843 21.3663 13.7562C22.0163 13.5953 22.5756 13.1812 22.9178 12.6046L27.5258 4.92503C27.6961 4.64065 27.604 4.27191 27.3196 4.10159L27.3192 4.1016ZM10.3928 27.8436C10.0537 28.3702 9.35368 28.5264 8.82244 28.1952C8.28024 27.8733 8.08808 27.1827 8.38652 26.628C9.58808 24.4186 11.0037 22.042 12.5005 19.7016C12.9146 20.5188 13.363 21.3781 13.8364 22.2609C12.6458 24.3047 11.4896 26.1889 10.3928 27.8436ZM20.6336 27.5155C20.5429 27.8124 20.3398 28.0624 20.0664 28.2124C19.5148 28.5233 18.8148 28.342 18.4836 27.8014C17.2539 25.9202 16.0836 23.903 15.0414 21.9734C15.0289 21.9453 15.0148 21.9203 14.9992 21.8937C13.8945 19.85 12.9289 17.9078 12.1789 16.3373C12.1023 16.1795 11.9601 16.0623 11.7898 16.017L10.8304 15.7639C9.82419 15.4905 9.01011 14.7514 8.64135 13.7764L5.63979 5.87959C5.28041 4.95303 5.36322 3.91395 5.86479 3.05615L6.24448 2.40303C6.30854 2.29209 6.42885 2.2249 6.55698 2.22646C6.69448 2.22178 6.8226 2.29678 6.8851 2.41865L14.2039 15.4107L20.5555 26.6795C20.6961 26.9341 20.7258 27.2373 20.6368 27.5154L20.6336 27.5155ZM19.0273 7.74027L22.5164 1.91987C22.6867 1.6355 23.0555 1.54175 23.3398 1.71206C23.6242 1.88237 23.7164 2.25114 23.5461 2.5355L20.057 8.3543C19.9492 8.53711 19.7539 8.64805 19.5414 8.64805C19.4336 8.64649 19.3257 8.6168 19.2336 8.56055C18.9507 8.39024 18.8586 8.02467 19.0273 7.74027ZM21.018 8.93247L24.507 3.11207C24.5852 2.96832 24.718 2.86364 24.8758 2.82145C25.0336 2.7777 25.2008 2.80114 25.3414 2.88551C25.4805 2.96833 25.5805 3.10582 25.618 3.2652C25.6539 3.42458 25.6243 3.5902 25.5352 3.72768L22.0477 9.54648C21.9399 9.72929 21.743 9.84023 21.5305 9.84023C21.4227 9.84023 21.3164 9.80898 21.2242 9.75273C21.0867 9.67148 20.9898 9.54023 20.9508 9.38554C20.9117 9.23085 20.9351 9.06841 21.018 8.93247Z" fill="#030303"/>
</svg>