<svg width="33" height="33" viewBox="0 0 33 33" fill="none" xmlns="http://www.w3.org/2000/svg">
<path d="M31.7137 16.005C31.5487 15.9715 29.0079 15.2793 26.1037 15.7085C26.4994 12.8043 25.8394 10.2635 25.8072 10.1322C25.7079 9.80219 25.3779 9.60366 25.0157 9.67071C24.8507 9.70423 22.3422 10.3964 20.032 12.2114C18.9428 9.50571 17.062 7.62511 16.9628 7.52578C16.6985 7.29504 16.3028 7.29504 16.072 7.52578C15.9728 7.62504 14.092 9.50578 13.0028 12.2114C10.6928 10.3964 8.15211 9.73645 7.98711 9.67071C7.65711 9.57146 7.29358 9.76997 7.19564 10.1322C7.16212 10.2972 6.4699 12.8057 6.89915 15.7085C3.99489 15.3128 1.45415 15.9728 1.28915 16.0385C0.959151 16.1378 0.760623 16.4678 0.827679 16.83C0.893421 17.0285 2.24694 22.11 6.30634 24.4537C7.13134 24.9151 8.02208 25.2787 9.01208 25.5094C9.77134 25.6744 10.5628 25.7737 11.5206 25.7737H21.4543C22.3785 25.7737 23.2035 25.6744 23.9628 25.5094C24.9528 25.2787 25.8771 24.9151 26.6685 24.4537C30.7279 22.1101 32.0799 17.0623 32.1472 16.83C32.2413 16.4343 32.0441 16.1043 31.7141 16.005L31.7137 16.005ZM26.0367 23.2987C25.3431 23.6944 24.5517 23.9922 23.6931 24.1894C23.0331 24.3209 22.3074 24.4202 21.4824 24.4202H11.5167C10.6917 24.4202 9.966 24.3544 9.306 24.1894C8.44747 23.9909 7.656 23.6944 6.93026 23.2987C4.15879 21.6809 2.7716 18.48 2.31026 17.0943C3.26674 16.9293 5.181 16.6651 7.16093 17.0286C7.35945 17.8201 7.68946 18.6451 8.11741 19.4043C8.84314 20.6586 9.86667 21.7479 11.2189 22.6708C11.3504 22.7701 11.4496 22.8023 11.5824 22.8023C11.7809 22.8023 11.9781 22.703 12.1109 22.538C12.3094 22.2416 12.2424 21.8445 11.9459 21.6473C10.7574 20.8223 9.83446 19.8658 9.2402 18.7766C7.62373 16.0051 8.01946 12.5066 8.28373 11.0872C9.20799 11.4172 10.9895 12.143 12.5081 13.463C12.2773 14.2544 12.1445 15.113 12.1445 16.0037C12.1445 17.423 12.5081 18.908 13.1681 20.393C13.3331 20.723 13.6966 20.8545 14.0266 20.6895C14.3566 20.5245 14.4881 20.161 14.3231 19.831C13.7288 18.511 13.3988 17.2245 13.3988 15.9703C13.3988 12.7696 15.4781 9.93099 16.4345 8.84166C17.391 9.93092 19.4703 12.736 19.4703 15.9703C19.4703 17.2246 19.1738 18.5111 18.546 19.831C18.381 20.161 18.546 20.5245 18.8425 20.6895C18.9418 20.723 19.0075 20.7553 19.1068 20.7553C19.3375 20.7553 19.5682 20.6238 19.701 20.3917C20.3945 18.9067 20.7245 17.4217 20.7245 16.0024C20.7245 15.1117 20.5931 14.2531 20.361 13.4617C21.9118 12.1417 23.661 11.4159 24.5854 11.0859C24.8496 12.5052 25.2453 15.9703 23.6611 18.7753C23.0346 19.8645 22.1103 20.821 20.9554 21.646C20.6589 21.8445 20.5918 22.2403 20.7903 22.5367C20.9218 22.7017 21.1203 22.801 21.3189 22.801C21.4504 22.801 21.5831 22.7675 21.6824 22.6695C23.0359 21.7452 24.0581 20.6238 24.7839 19.403C25.2131 18.6438 25.5431 17.8188 25.7404 17.0273C27.7204 16.6638 29.6347 16.8958 30.591 17.093C30.2288 18.4801 28.8417 21.6807 26.0367 23.2987Z" fill="black"/>
</svg>
