<svg width="27" height="34" viewBox="0 0 27 34" fill="none" xmlns="http://www.w3.org/2000/svg">
<path d="M6.34501 3.99095C2.31617 5.05095 -0.279988 8.76095 0.0390725 12.8955L1.68292 28.636C1.94792 31.2321 4.12177 33.1948 6.71792 33.1948C9.4735 33.1948 11.6991 31.0748 11.8068 28.3192L12.6018 8.92016C12.5997 5.40684 9.36368 3.15874 6.34501 3.99095ZM6.7156 32.135C4.64945 32.135 2.95175 30.5989 2.68675 28.5306L1.89175 21.1646C2.58118 15.6537 6.50233 13.0037 7.56222 12.3656C8.1978 12.8418 10.1066 14.4317 11.1128 17.8251L10.6884 28.2656C10.6905 30.4394 8.88945 32.135 6.7156 32.135ZM11.2744 15.175C10.1606 13.0012 8.78387 11.8356 8.20002 11.465V9.61001C8.20002 8.8978 7.14002 8.89992 7.14002 9.61001V11.4112C6.1856 11.995 3.11118 14.0612 1.62908 18.0362L1.09908 12.7362C0.780257 9.18559 3.11144 5.90022 6.61002 4.99922C8.85426 4.25182 11.6512 6.22898 11.5394 8.92037L11.2744 15.175ZM20.6549 0.22954C17.6323 -0.604786 14.4004 1.64771 14.4004 5.15896L15.1954 24.558C15.301 27.3136 17.5265 29.4336 20.2842 29.4336C22.8804 29.4336 25.0542 27.473 25.3192 24.8748L26.961 9.13428C27.3337 5.05164 24.6835 1.28954 20.6549 0.22954ZM20.2843 28.425C18.1105 28.425 16.3632 26.7294 16.2555 24.5556L15.8311 14.1151C16.8393 10.724 18.6943 9.13396 19.3837 8.65559C20.4437 9.29116 24.3649 11.9412 25.0542 17.4546L24.2592 24.8206C24.0459 26.8888 22.3505 28.425 20.2843 28.425ZM25.9013 9.08001L25.3713 14.38C23.8889 10.405 20.8145 8.28501 19.8603 7.75501V5.90001C19.8603 5.1878 18.8003 5.18992 18.8003 5.90001V7.75501C18.2165 8.17942 16.8398 9.29116 15.7259 11.465L15.4609 5.15907C15.4609 2.83205 17.289 0.72032 20.3903 1.23792C23.8892 2.19027 26.2203 5.47553 25.9013 9.08001Z" fill="black"/>
</svg>
