<svg width="36" height="36" viewBox="0 0 36 36" fill="none" xmlns="http://www.w3.org/2000/svg">
<path d="M28.3288 5.31431H28.3105H28.2711C28.2345 5.31431 28.1994 5.31853 28.1628 5.32135C23.9217 5.70946 20.1247 6.94135 16.5571 9.08011C13.2159 11.0812 10.98 13.9106 9.90002 17.4922C9.43878 19.0292 9.42471 20.9811 9.86345 22.7194C10.3852 24.7782 11.4694 26.3237 12.9164 27.0646C13.1217 27.1687 13.3481 27.2235 13.5717 27.2235C13.7377 27.2235 13.8994 27.1954 14.0583 27.1406C14.1736 27.3824 14.3213 27.6089 14.5196 27.8142C15.2677 28.5989 16.3519 28.7029 17.2083 28.7029C17.4277 28.7029 17.6653 28.6959 17.9424 28.6818C20.0012 28.5736 21.8308 27.6595 23.3748 25.9607C25.6614 23.4407 26.356 20.3879 26.709 18.0127C26.792 17.4614 26.8637 16.9116 26.9354 16.3561C27.3488 13.2384 27.7412 10.2937 29.4948 7.58252C29.6565 7.34908 29.7507 7.06783 29.7507 6.76129C29.7507 5.96112 29.1163 5.32133 28.3288 5.31431ZM25.2828 17.7919C24.8975 20.416 24.1634 22.9403 22.3086 24.9808C21.1133 26.2984 19.6775 27.1408 17.8705 27.235C17.6329 27.2462 17.4135 27.2533 17.2124 27.2533C15.4012 27.2533 15.0707 26.695 15.179 24.5575C15.3548 20.9617 16.702 17.8399 19.0418 15.1258C19.3005 14.8277 19.5607 14.5281 19.8195 14.23C15.8638 16.6389 13.9806 20.2712 13.5771 25.7824C11.2441 24.5871 10.5058 20.4908 11.2807 17.9089C12.2777 14.5901 14.3519 12.0841 17.2923 10.3165C20.604 8.32945 24.1787 7.1299 28.309 6.75305C26.0281 10.2602 25.8341 14.0612 25.2828 17.7919Z" fill="black"/>
</svg>
