<svg width="33" height="33" viewBox="0 0 33 33" fill="none" xmlns="http://www.w3.org/2000/svg">
<path d="M16.5 9.5625C18.3702 9.5625 20.0569 8.43514 20.7724 6.70802C21.4893 4.97942 21.0932 2.98915 19.7708 1.66677C18.4483 0.344315 16.4582 -0.0516959 14.7295 0.665179C13.0024 1.38061 11.8751 3.06729 11.8751 4.93757C11.878 7.48998 13.9476 9.55954 16.5 9.5625ZM16.5 1.46875C17.9034 1.46875 19.168 2.31427 19.7043 3.61071C20.2419 4.90571 19.9442 6.39874 18.9527 7.39026C17.9612 8.38175 16.4683 8.67949 15.1732 8.14181C13.8767 7.6056 13.0312 6.34094 13.0312 4.93753C13.0327 3.02249 14.585 1.47019 16.5 1.46875Z" fill="black"/>
<path d="M32.501 17.6866C32.3724 17.1879 31.9865 16.7963 31.4907 16.6575C30.7695 16.5896 30.0555 16.8512 29.5482 17.3686C29.5034 17.4105 29.4658 17.4582 29.4355 17.5132C29.2303 18.006 28.7952 18.3688 28.272 18.483C27.4106 18.4512 26.5926 18.0913 25.987 17.4756C23.3103 8.94374 22.1049 8.56967 21.7076 8.44683C21.4373 8.36156 21.1425 8.43093 20.9372 8.62605C19.8475 9.95428 18.2186 10.7218 16.5002 10.7188C14.7441 10.7116 13.0863 9.91524 11.9821 8.54942C11.7827 8.40345 11.5254 8.36442 11.2927 8.44681C10.8952 8.56966 9.68986 8.94401 7.0118 17.477C6.41055 18.0956 5.59251 18.4555 4.72964 18.483C4.20642 18.3702 3.77141 18.0075 3.56473 17.5132C3.53438 17.4583 3.4968 17.4106 3.45199 17.3686C2.94469 16.8484 2.22925 16.5853 1.50661 16.6532C1.01232 16.7905 0.627858 17.1822 0.497766 17.6794C0.132102 18.7026 0.296867 19.8416 0.938584 20.7203C1.55138 21.5355 2.90565 22.4749 5.86846 22.3391H5.86991C7.93381 22.2914 9.85481 21.2681 11.0469 19.58V21.4502C11.0469 21.5832 11.0918 21.7118 11.1756 21.8144C12.5284 23.413 14.4463 24.4247 16.5276 24.6415C18.5915 24.4146 20.4877 23.4028 21.8246 21.8144C21.9084 21.7118 21.9532 21.5832 21.9532 21.4502V19.5742C23.1441 21.2638 25.065 22.2885 27.1302 22.3391H27.1317C30.0931 22.4735 31.4518 21.5341 32.0645 20.7175H32.066C32.7048 19.8416 32.8681 18.707 32.501 17.6866ZM31.1395 20.0236C30.5021 20.8735 29.1305 21.2681 27.1865 21.1828V21.1842C25.9739 21.1365 24.8103 20.7015 23.8651 19.9412C22.9199 19.181 22.2435 18.1361 21.9385 16.9624C21.872 16.6763 21.6003 16.4869 21.3098 16.5202C21.0179 16.5534 20.7982 16.8006 20.7967 17.094V21.2335C19.6983 22.4823 18.1793 23.2845 16.5273 23.4868C14.858 23.2902 13.3187 22.4881 12.2027 21.2321V17.094C12.2013 16.8006 11.9816 16.5535 11.6897 16.5202C11.3992 16.4898 11.1303 16.6792 11.061 16.9639C10.7574 18.1389 10.0825 19.1839 9.13726 19.9441C8.19202 20.7044 7.02567 21.1394 5.81303 21.1842C3.86043 21.2738 2.50183 20.8749 1.86291 20.0265C1.4582 19.4527 1.35705 18.72 1.58975 18.058C1.60998 17.9988 1.68803 17.7993 1.78053 17.7762C2.08982 17.808 2.37889 17.9438 2.60148 18.1606C2.98451 18.9368 3.71581 19.4817 4.56855 19.6276C5.8361 19.6276 7.0487 19.1131 7.92889 18.1996C7.99393 18.1332 8.04307 18.0522 8.07053 17.9641C9.99135 11.8158 11.0681 10.1463 11.4742 9.69974C12.7707 11.0959 14.5932 11.885 16.4996 11.8749C18.4059 11.8923 20.2314 11.1002 21.522 9.69541C21.9252 10.1362 23.0034 11.7983 24.9285 17.9627C24.956 18.0523 25.0051 18.1332 25.0702 18.1997C25.9533 19.1088 27.1645 19.6234 28.4305 19.6277C29.2833 19.4817 30.0146 18.9368 30.3976 18.1607C30.6187 17.9439 30.9063 17.8095 31.2127 17.7806C31.2778 17.7965 31.3515 17.9049 31.4079 18.0668C31.642 18.7244 31.5408 19.4543 31.139 20.0238L31.1395 20.0236Z" fill="black"/>
<path d="M30.109 26.3165C30.0483 24.6587 28.6579 23.3608 26.9987 23.4143C26.9221 23.4143 26.8469 23.4287 26.7775 23.4576C24.5301 24.4086 22.1755 25.0836 19.7664 25.468C17.6187 25.8077 15.4319 25.812 13.2829 25.4796C11.1655 25.1443 9.11596 24.4693 7.21564 23.4793C7.13326 23.436 7.04221 23.4143 6.94971 23.4143C6.14466 23.407 5.3671 23.7033 4.77018 24.2453C4.17759 24.7714 3.83508 25.5244 3.82783 26.3165C3.8524 27.467 4.55629 28.4931 5.62004 28.931L4.88581 29.1117C4.21374 29.2071 3.60527 29.5641 3.19335 30.1032C2.94765 30.4327 2.84503 30.8475 2.91007 31.2537C3.15433 32.1715 4.02873 32.7742 4.97253 32.6759C5.17054 32.6744 5.36854 32.6542 5.56223 32.6152C9.16829 31.7379 12.819 31.0572 16.5002 30.5787C18.2013 30.8346 19.9386 31.1048 21.5473 31.378H21.5517C23.5621 31.6815 25.5536 32.1007 27.5165 32.6325C27.6856 32.6614 27.8575 32.6759 28.0281 32.6759C28.969 32.7742 29.8419 32.1744 30.0891 31.2609C30.1556 30.8534 30.0544 30.4357 29.8073 30.1032C29.4055 29.5786 28.8172 29.2274 28.1625 29.1248L28.1524 29.1204L27.9457 29.0699V29.0684C28.4053 28.9383 28.8288 28.7042 29.1829 28.3833C29.7654 27.8529 30.1007 27.1042 30.1094 26.3165L30.109 26.3165ZM4.98375 26.3165C4.99242 25.8467 5.1991 25.4016 5.55466 25.0937C5.90298 24.7786 6.34957 24.5951 6.81788 24.5749C8.79072 25.5837 10.9123 26.2746 13.1005 26.6214C13.5211 26.6893 13.946 26.7443 14.3752 26.7847L9.1575 28.0624H6.94904C5.92577 28.1187 5.0488 27.3398 4.98375 26.3165ZM28.8617 30.7679C28.9296 30.8518 28.9614 30.9602 28.9484 31.0686C28.9065 31.3258 28.5105 31.5195 28.0278 31.5195C27.9208 31.5195 27.8211 31.5065 27.7849 31.5108C25.7962 30.9674 23.7786 30.5425 21.7406 30.2375C21.2911 30.1609 20.8156 30.0858 20.3488 30.0106L20.622 29.9701C22.141 29.749 23.475 29.5539 24.4259 29.4021L27.8802 30.2433L27.9048 30.2462L27.9178 30.2505C28.2863 30.2982 28.6232 30.4832 28.8617 30.7679ZM28.3978 27.5333C28.0032 27.8874 27.4887 28.0768 26.9597 28.0637L24.3697 28.243L24.3567 28.2444C23.3565 28.4034 21.9979 28.6014 20.4543 28.8254C19.1983 29.009 17.8209 29.2084 16.4131 29.4209H16.4146C12.6728 29.908 8.95983 30.5988 5.29276 31.4921C4.70016 31.5918 4.1018 31.3837 4.04978 31.0613C4.03822 30.9558 4.07001 30.8503 4.13794 30.7679C4.38798 30.476 4.73775 30.2881 5.12074 30.2433L10.1809 29.0032L19.9814 26.604V26.6025C22.4283 26.2123 24.8203 25.5315 27.1069 24.5733C28.0868 24.5733 28.8976 25.3378 28.9526 26.3163C28.9453 26.7817 28.7446 27.2226 28.3978 27.5333Z" fill="black"/>
</svg>
